<?xml version="1.0" encoding="UTF-8" standalone="no"?>
<!DOCTYPE svg PUBLIC "-//W3C//DTD SVG 1.1//EN" "http://www.w3.org/Graphics/SVG/1.1/DTD/svg11.dtd">
<svg version="1.1" xmlns="http://www.w3.org/2000/svg" xmlns:xlink="http://www.w3.org/1999/xlink" preserveAspectRatio="xMidYMid meet" viewBox="0 0 500 500" width="500" height="500"><defs><path d="M444.2 80C447.41 80 450 82.6 450 85.8C450 94.64 450 115.36 450 124.19C450 127.4 447.41 130 444.2 130C365.36 130 134.65 130 55.81 130C52.6 130 50 127.4 50 124.19C50 115.36 50 94.64 50 85.8C50 82.6 52.6 80 55.81 80C134.65 80 365.36 80 444.2 80Z" id="d1439Kls6n"></path><path d="M444.19 225C447.4 225 450 227.59 450 230.8C450 239.64 450 260.35 450 269.19C450 272.4 447.4 275 444.19 275C365.35 275 134.64 275 55.8 275C52.6 275 50 272.4 50 269.19C50 260.35 50 239.64 50 230.8C50 227.59 52.6 225 55.8 225C134.64 225 365.35 225 444.19 225Z" id="b176pm0UqZ"></path><path d="M444.2 370C447.4 370 450 372.6 450 375.81C450 384.65 450 405.36 450 414.2C450 417.4 447.4 420 444.2 420C365.36 420 134.64 420 55.81 420C52.6 420 50 417.4 50 414.2C50 405.36 50 384.65 50 375.81C50 372.6 52.6 370 55.81 370C134.64 370 365.36 370 444.2 370Z" id="aIondg1yt"></path></defs><g><g><g><use xlink:href="#d1439Kls6n" opacity="1" fill="#161616" fill-opacity="1"></use></g><g><use xlink:href="#b176pm0UqZ" opacity="1" fill="#161616" fill-opacity="1"></use></g><g><use xlink:href="#aIondg1yt" opacity="1" fill="#161616" fill-opacity="1"></use></g></g></g></svg>